<svg width="245" height="66" viewBox="0 0 245 66" fill="none" xmlns="http://www.w3.org/2000/svg">
<path d="M49.25 64C49.4167 61.5 49.5417 59.2917 49.625 57.375C49.7083 55.4583 49.7917 53.4583 49.875 51.375C48.125 55.875 45.125 59.3333 40.875 61.75C36.625 64.1667 31.625 65.375 25.875 65.375C22.125 65.375 18.6667 64.875 15.5 63.875C12.4167 62.7917 9.70833 61.2917 7.375 59.375C5.04167 57.4583 3.20833 55.125 1.875 52.375C0.625 49.5417 9.49949e-08 46.375 9.49949e-08 42.875C9.49949e-08 39.375 0.625 36.2083 1.875 33.375C3.20833 30.5417 5.04167 28.1667 7.375 26.25C9.70833 24.3333 12.4167 22.875 15.5 21.875C18.6667 20.7917 22.125 20.25 25.875 20.25C31.7083 20.25 36.7917 21.5417 41.125 24.125C45.4583 26.625 48.4583 30.2083 50.125 34.875C50.0417 33.7917 50 32.5833 50 31.25C50 29.8333 49.9583 28 49.875 25.75C49.875 19.4167 48.125 14.5 44.625 11C41.125 7.5 36.25 5.75 30 5.75C26.4167 5.75 22.5833 6.41666 18.5 7.75C14.4167 9.08333 10.5 11.3333 6.75 14.5L3.625 9C7.875 5.83333 12.375 3.58333 17.125 2.25C21.875 0.916662 26.8333 0.249994 32 0.249994C41.4167 0.249994 48.25 2.29166 52.5 6.375C56.75 10.375 58.8333 16.1667 58.75 23.75C58.75 26.4167 58.75 28.5833 58.75 30.25C58.75 31.9167 58.75 33.5 58.75 35C58.75 36.4167 58.75 37.9583 58.75 39.625C58.75 41.2083 58.75 43.3333 58.75 46C58.8333 47.75 58.875 49.3333 58.875 50.75C58.9583 52.1667 59.0417 53.5833 59.125 55C59.2083 56.3333 59.2917 57.75 59.375 59.25C59.4583 60.6667 59.5417 62.25 59.625 64H49.25ZM28.75 61.5C31.5833 61.5 34.25 61.0833 36.75 60.25C39.3333 59.3333 41.5833 58.0833 43.5 56.5C45.4167 54.9167 46.9167 52.9583 48 50.625C49.1667 48.2917 49.75 45.7083 49.75 42.875C49.75 39.9583 49.1667 37.375 48 35.125C46.9167 32.7917 45.4167 30.8333 43.5 29.25C41.5833 27.5833 39.3333 26.3333 36.75 25.5C34.25 24.5833 31.5833 24.125 28.75 24.125C25.9167 24.125 23.25 24.5833 20.75 25.5C18.3333 26.3333 16.2083 27.5833 14.375 29.25C12.625 30.8333 11.25 32.7917 10.25 35.125C9.25 37.375 8.75 39.9583 8.75 42.875C8.75 45.7083 9.25 48.2917 10.25 50.625C11.25 52.9583 12.625 54.9167 14.375 56.5C16.2083 58.0833 18.3333 59.3333 20.75 60.25C23.25 61.0833 25.9167 61.5 28.75 61.5ZM116.028 64C115.528 62.25 115.028 60.6667 114.528 59.25C114.112 57.8333 113.653 56.4583 113.153 55.125C112.737 53.7917 112.278 52.4583 111.778 51.125C111.362 49.7083 110.82 48.125 110.153 46.375C109.237 43.7083 108.362 41.3333 107.528 39.25C106.778 37.0833 105.987 35 105.153 33C104.403 31 103.612 28.9583 102.778 26.875C101.945 24.7083 101.028 22.3333 100.028 19.75C99.3617 18 98.7367 16.4167 98.1533 15C97.57 13.5 96.9867 12.0417 96.4033 10.625C95.9033 9.20833 95.32 7.79166 94.6533 6.375C94.07 4.875 93.4033 3.25 92.6533 1.5H102.653C108.737 21.3333 115.778 40.7083 123.778 59.625C127.695 50.2083 131.403 40.625 134.903 30.875C138.487 21.0417 141.737 11.25 144.653 1.5H154.653C153.987 3.25 153.32 4.875 152.653 6.375C152.07 7.79166 151.487 9.20833 150.903 10.625C150.403 12.0417 149.862 13.5 149.278 15C148.695 16.4167 148.07 18 147.403 19.75C144.487 27.0833 141.653 34.4167 138.903 41.75C136.237 49 133.695 56.4167 131.278 64H116.028ZM233.977 64C234.143 61.5 234.268 59.2917 234.352 57.375C234.435 55.4583 234.518 53.4583 234.602 51.375C232.852 55.875 229.852 59.3333 225.602 61.75C221.352 64.1667 216.352 65.375 210.602 65.375C206.852 65.375 203.393 64.875 200.227 63.875C197.143 62.7917 194.435 61.2917 192.102 59.375C189.768 57.4583 187.935 55.125 186.602 52.375C185.352 49.5417 184.727 46.375 184.727 42.875C184.727 39.375 185.352 36.2083 186.602 33.375C187.935 30.5417 189.768 28.1667 192.102 26.25C194.435 24.3333 197.143 22.875 200.227 21.875C203.393 20.7917 206.852 20.25 210.602 20.25C216.435 20.25 221.518 21.5417 225.852 24.125C230.185 26.625 233.185 30.2083 234.852 34.875C234.768 33.7917 234.727 32.5833 234.727 31.25C234.727 29.8333 234.685 28 234.602 25.75C234.602 19.4167 232.852 14.5 229.352 11C225.852 7.5 220.977 5.75 214.727 5.75C211.143 5.75 207.31 6.41666 203.227 7.75C199.143 9.08333 195.227 11.3333 191.477 14.5L188.352 9C192.602 5.83333 197.102 3.58333 201.852 2.25C206.602 0.916662 211.56 0.249994 216.727 0.249994C226.143 0.249994 232.977 2.29166 237.227 6.375C241.477 10.375 243.56 16.1667 243.477 23.75C243.477 26.4167 243.477 28.5833 243.477 30.25C243.477 31.9167 243.477 33.5 243.477 35C243.477 36.4167 243.477 37.9583 243.477 39.625C243.477 41.2083 243.477 43.3333 243.477 46C243.56 47.75 243.602 49.3333 243.602 50.75C243.685 52.1667 243.768 53.5833 243.852 55C243.935 56.3333 244.018 57.75 244.102 59.25C244.185 60.6667 244.268 62.25 244.352 64H233.977ZM213.477 61.5C216.31 61.5 218.977 61.0833 221.477 60.25C224.06 59.3333 226.31 58.0833 228.227 56.5C230.143 54.9167 231.643 52.9583 232.727 50.625C233.893 48.2917 234.477 45.7083 234.477 42.875C234.477 39.9583 233.893 37.375 232.727 35.125C231.643 32.7917 230.143 30.8333 228.227 29.25C226.31 27.5833 224.06 26.3333 221.477 25.5C218.977 24.5833 216.31 24.125 213.477 24.125C210.643 24.125 207.977 24.5833 205.477 25.5C203.06 26.3333 200.935 27.5833 199.102 29.25C197.352 30.8333 195.977 32.7917 194.977 35.125C193.977 37.375 193.477 39.9583 193.477 42.875C193.477 45.7083 193.977 48.2917 194.977 50.625C195.977 52.9583 197.352 54.9167 199.102 56.5C200.935 58.0833 203.06 59.3333 205.477 60.25C207.977 61.0833 210.643 61.5 213.477 61.5Z" fill="white"/>
</svg>
