<svg width="164" height="40" viewBox="0 0 164 40" fill="none" xmlns="http://www.w3.org/2000/svg">
<path d="M48.98 3.39409C41.8486 7.05448 35.2918 12.04 28.7984 16.6715C24.2257 19.9329 16.8114 25.249 12.0563 29.1143C9.76023 30.9806 10.0886 30.4178 9.40082 32.0226C8.49602 34.1338 9.64448 35.1753 11.7275 36.1702C14.487 37.4882 17.6912 37.9895 20.7055 38.244C31.5242 39.1575 42.5996 37.9419 53.3299 36.676C77.9751 33.7686 102.352 28.3563 126.57 23.0193C138.582 20.3723 150.644 17.8403 161.269 11.3352C166.3 8.2546 154.338 5.49808 153.176 5.16441C142.766 2.1769 132.016 1.34944 121.209 1.11797C93.0072 0.513921 64.4208 2.15388 36.7396 7.79459C25.1024 10.1659 12.7848 13.2183 1.63672 17.506" stroke="#71A9BB" stroke-width="2" stroke-linecap="round"/>
</svg>
