<svg width="328" height="119" viewBox="0 0 328 119" fill="none" xmlns="http://www.w3.org/2000/svg">
<path d="M321.064 13.3063L122.865 15.6997L0.466304 31.3466L24.9086 107.594L168.011 93.3608L165.705 106.221L183.868 92.098L326.009 80.7782L324.953 67.5136L322.903 41.7762L321.064 13.3063Z" fill="#D9C5AD"/>
<path d="M38.5 17.0884H56.5V40.6983L38.5 38.0796V17.0884Z" fill="#FBF8F8" stroke="#8D765A" stroke-width="5"/>
<path d="M50.3027 30.5649H50.1387V30.8657H49.9883V31.1802H49.6875V31.3442H49.5234V31.481H49.209V31.645H48.9082V31.7954H47.377V31.645H46.9121V31.481H46.7617V27.8032H46.9121V27.6392H48.293V27.8032H48.9082V27.9399H49.209V28.104H49.5234V28.2544H49.6875V28.4185H49.8242V28.5552H49.9883V28.7192H50.1387V29.0337H50.3027V29.4849H50.4531V30.2505H50.3027V30.5649ZM49.5234 25.7935H49.373V26.1079H49.209V26.2583H48.9082V26.4224H48.7578V26.5591H48.457V26.7231H47.9922V26.8735H46.9121V26.5591H46.7617V23.9478H46.9121V23.6333H47.2129V23.4966H48.293V23.6333H48.9082V23.7974H49.209V23.9478H49.373V24.1118H49.5234V24.563H49.6875V25.4927H49.5234V25.7935ZM44.4648 22.8813H44.3008V23.4966H44.4648V23.6333H45.2168V23.7974H45.5312V24.1118H45.6953V24.563H45.5312V27.9399H45.6953V29.0337H45.5312V31.3442H45.3809V31.481H45.2168V31.645H44.7656V31.7954H44.4648V31.9595H44.3008V32.4106H44.4648V32.561H46.2969V32.7251H47.2129V32.561H48.9082V32.7251H49.209V32.561H49.8242V32.4106H50.1387V32.2466H50.4531V32.1099H50.5898V31.9595H50.9043V31.7954H51.0684V31.645H51.2051V31.481H51.3691V31.1802H51.5195V30.8657H51.6836V30.5649H51.8203V29.1841H51.6836V28.7192H51.5195V28.5552H51.3691V28.2544H51.2051V28.104H51.0684V27.9399H50.9043V27.8032H50.5898V27.6392H50.4531V27.4888H49.9883V27.3384H49.8242V27.1743H49.6875V27.0376H49.8242V26.8735H49.9883V26.7231H50.1387V26.5591H50.3027V26.4224H50.4531V26.2583H50.5898V25.9438H50.7539V25.6431H50.9043V25.0415H51.0684V24.8774H50.9043V24.1118H50.7539V23.7974H50.5898V23.6333H50.4531V23.3325H50.1387V23.1821H49.9883V23.0181H49.6875V22.8813H48.9082V22.731H44.4648V22.8813Z" fill="black"/>
</svg>
