<svg width="278" height="129" viewBox="0 0 278 129" fill="none" xmlns="http://www.w3.org/2000/svg">
<path d="M16.3234 40.5383L177.144 31.8086L276.966 40.5621L259.869 118.05L143.308 111.869L146.581 125.125L130.403 111.498L14.7249 108.172L15.1074 94.8706L15.8495 69.0625L16.3234 40.5383Z" fill="#D9C5AD"/>
<g filter="url(#filter0_d_512_56)">
<path d="M27.082 29.5H45.082V53.11L27.082 50.4912V29.5Z" fill="#FBF8F8" stroke="#8D765A" stroke-width="5"/>
<path d="M34.1094 40.8301H34.2461V40.9668H36.5566V40.8301H36.8711V40.3516H36.7207V40.0508H36.5566V39.4492H36.4062V38.9707H36.2422V38.5195H36.1055V38.2051H35.9551V37.7402H35.791V37.4531H35.6543V37.1387H35.4902V37.2891H35.1758V37.5898H35.0391V38.0547H34.875V38.3555H34.7246V38.9707H34.5605V39.2852H34.4102V39.75H34.2461V40.0508H34.1094V40.8301ZM35.3398 34.8281H35.791V34.9785H35.9551V35.1426H36.1055V35.4297H36.2422V35.9082H36.4062V36.209H36.5566V36.6738H36.7207V37.1387H36.8711V37.5898H37.0352V38.0547H37.1719V38.5195H37.3359V38.9707H37.4863V39.4492H37.6504V39.75H37.7871V40.0508H37.9512V40.3516H38.1016V40.9668H38.2656V41.2812H38.4023V41.5957H38.5527V42.2109H38.7168V42.5117H38.8672V42.9766H39.0312V43.2773H39.168V43.5918H39.332V43.8926H39.6465V44.0566H40.0977V44.207H40.3984V44.8223H40.2617V44.9727H37.0352V44.8223H36.5566V44.3711H36.7207V44.207H37.3359V44.0566H37.7871V43.8926H37.9512V43.4414H37.7871V42.9766H37.6504V42.5117H37.4863V42.2109H37.3359V42.0605H37.1719V41.8965H35.0391V41.7598H33.9453V41.8965H33.6582V42.0605H33.4941V42.6621H33.3438V43.1406H33.1797V43.7559H33.3438V43.8926H33.4941V44.0566H34.4102V44.207H34.5605V44.6582H34.4102V44.8223H32.7285V44.9727H31.1836V44.8223H30.8828V44.207H31.0469V44.0566H31.3477V43.8926H31.6348V43.7559H31.7988V43.5918H31.9492V43.1406H32.1133V42.9766H32.25V42.5117H32.4141V42.0605H32.5645V41.5957H32.7285V41.2812H32.8789V40.9668H33.043V40.666H33.1797V40.0508H33.3438V39.75H33.4941V39.4492H33.6582V38.9707H33.7949V38.6699H33.9453V38.2051H34.1094V37.5898H34.2461V37.1387H34.4102V36.6738H34.5605V36.3594H34.7246V35.7441H34.875V35.1426H35.1758V34.9785H35.3398V34.8281Z" fill="black"/>
</g>
<defs>
<filter id="filter0_d_512_56" x="0.582031" y="0" width="73" height="79" filterUnits="userSpaceOnUse" color-interpolation-filters="sRGB">
<feFlood flood-opacity="0" result="BackgroundImageFix"/>
<feColorMatrix in="SourceAlpha" type="matrix" values="0 0 0 0 0 0 0 0 0 0 0 0 0 0 0 0 0 0 127 0" result="hardAlpha"/>
<feOffset dx="1" dy="-2"/>
<feGaussianBlur stdDeviation="12.5"/>
<feComposite in2="hardAlpha" operator="out"/>
<feColorMatrix type="matrix" values="0 0 0 0 0 0 0 0 0 0 0 0 0 0 0 0 0 0 0.5 0"/>
<feBlend mode="normal" in2="BackgroundImageFix" result="effect1_dropShadow_512_56"/>
<feBlend mode="normal" in="SourceGraphic" in2="effect1_dropShadow_512_56" result="shape"/>
</filter>
</defs>
</svg>
