<svg id="Layer_1" data-name="Layer 1" xmlns="http://www.w3.org/2000/svg" viewBox="0 0 281.52 582.53"><defs><style>.cls-1{fill:none;stroke:#dc7753;stroke-width:10px;}</style></defs><path class="cls-1" d="M14,432.89l26.6,29.36,19.92,24.07H88.37L111,495.78l19.91,37.38v12l22.47,20L193.2,576V533.16l32-12V495.78l8-33.53-22.63-20.06-9.4-49.41V368.71L124.21,173.46V152.12L277,166.72V122.6L153.37,111.85l-13.22-16H111L124.21,77.2,88.37,5H60.49L20.66,45.11,31.33,86.5,14,95.81,31.33,122.6H14l-8,12,25.33,74.93L20.66,260.42v81.5l19.91,74.93Z" transform="translate(-0.48 0)"/></svg>