<?xml version="1.0" encoding="utf-8"?>
<!-- Generator: Adobe Illustrator 25.1.0, SVG Export Plug-In . SVG Version: 6.00 Build 0)  -->
<svg version="1.1" id="Layer_1" xmlns="http://www.w3.org/2000/svg" xmlns:xlink="http://www.w3.org/1999/xlink" x="0px" y="0px"
	 viewBox="0 0 297 629" style="enable-background:new 0 0 297 629;" xml:space="preserve">
<style type="text/css">
	.st0{fill:none;stroke:#DC7753;stroke-width:10;}
</style>
<path class="st0" d="M77.5,273.5L58.5,514v14l11.5,8l-3.5,24.5L90,574l-5,20.5l7.5,6l7.5-21h15.5L100,605l2.5,7l24.5,2.5l16.5-2.5
	l7.5-17.5l12.5,6l6-3l12.5,3l12-6l27,6l35.5-3l14.5-18l3-51.5l-25.5-73l8-22.5l14.5-20l-11-47h6.5l11-4.5L263,276l17-11l-2.5-16.5
	L260,235v-13l6.5-19.5l-11-27.5l-7.5-6.5l-6.5-55L229,97l-47-13.5h-23l4.5-5.5V57l-10-35L120,16.5l-23,9l-14,19l7.5,26l9.5,21
	L70,108v8l-5.5,4L55,155v20l-3.5,5l-7,22.5l3.5,5v4H31L20,218l-3.5,6.5L26,234v9l13,10.5l16,8L77.5,273.5z"/>
<image style="display:none;overflow:visible;" width="264" height="599" xlink:href="titienlastreet.png"  transform="matrix(1 0 0 1 16.5 17)">
</image>
</svg>
