<?xml version="1.0" encoding="utf-8"?>
<!-- Generator: Adobe Illustrator 25.1.0, SVG Export Plug-In . SVG Version: 6.00 Build 0)  -->
<svg version="1.1" id="Layer_1" xmlns="http://www.w3.org/2000/svg" xmlns:xlink="http://www.w3.org/1999/xlink" x="0px" y="0px"
	 viewBox="0 0 415.2 547" style="enable-background:new 0 0 415.2 547;" xml:space="preserve">
<style type="text/css">
	.st0{fill:none;stroke:#DC7753;stroke-width:10;}
	.st1{display:none;fill:none;}
</style>
<path class="st0" d="M75.5,404.6L65,424.1l10.5,10.5h21v-19.5l49,9v18l16.5,27h35.5l19.5,26.5v36h18l21-36h93.5l19.5-10.5l13.5,36
	h12l9-25.5l-9-26.5l-12-27l-33-146l-7-21l-16.5-30l23.5-13L326,197.6h-25.5H284l-12-18l-16-32.5l-30-36h16.5v-27l-45-19L180,36.6
	l-18,15c-10-5-30.9-17.4-34.5-27c-3.6-9.6-29.2-10-41.5-9l-28.5,36L35,36.6L15.5,65.1l60,216L65,331.6v19.5v42L75.5,404.6z"/>
<rect x="10" y="10.1" class="st1" width="399" height="527"/>
<image style="display:none;overflow:visible;" width="1680" height="2183" xlink:href="Vector moz_vasyla.png"  transform="matrix(0.24 0 0 0.24 11 12.2365)">
</image>
</svg>
